<?xml version="1.0" encoding="iso-8859-1"?>
<svg version="1.1" xmlns="http://www.w3.org/2000/svg" viewBox="0 0 485 485">
    <g>
        <path d="M413,71C368,25,307,0,242,0S116,25,71,71C25,116,0,177,0,242
            s25,125,71,171C116,459,177,485,242,485s125-25,171-71C459,368,485,307,485,242S459,116,413,71z
            M242,455C125,455,30,359,30,242S125,30,242,30S455,125,455,242S359,455,242,455z"/>
        <path d="M318,231c19,0,35-15,35-35s-15-35-35-35s-35,15-35,35S299,231,318,231z"/>
        <path d="M166,231c19,0,35-15,35-35s-15-35-35-35s-35,15-35,35S147,231,166,231z"/>
        <path d="M242,355c-46,0-89-29-105-73l-28,10C129,347,183,385,242,385s113-37,133-93l-28-10C331,325,289,355,242,355z"/>
    </g>
</svg>
